<svg xmlns="http://www.w3.org/2000/svg" viewBox="0 0 410.69 374.33"><defs><style>.cls-1,.cls-5{fill:#ed1c24;}.cls-2{fill:#f1f2f2;}.cls-3,.cls-4{fill:#fff;}.cls-3{stroke:#1c75bc;}.cls-3,.cls-4,.cls-5{stroke-miterlimit:10;stroke-width:15px;}.cls-4,.cls-5{stroke:#ed1c24;}.cls-6{fill:#231f20;}</style></defs><g id="Layer_2" data-name="Layer 2"><g id="Layer_7" data-name="Layer 7"><path class="cls-1" d="M28.18,154.15c-4.58,1-14.79-3.91-16.9-8.09C9.8,143.13-.89,119.59.06,114.72c.88-4.52,14-25.35,14-25.35S-3.51,91.48.71,67.53c1.07-6.06,12-14.08,18.49-16.25,6.73-2.23-9.33-19.66,10.39-31.63,5.72-3.47,16.9-12,27.46-4.93C61,17.34,62.69,4.75,78.18.63,94.51-3.71,98.46,15.7,98.46,15.7s19.19-4.42,23.61-2.25c20.07,9.86,15.62,11.13,15.62,11.13S69.65,145.27,28.18,154.15Z"/><path class="cls-1" d="M266,29.72c-.46-4.58,5.44-14,9.76-15.62,3-1.13,27.18-9,31.83-7.55C311.86,7.91,330.78,23,330.78,23s-.15-17.43,22.78-10.7C359.36,14,366,25.56,367.42,32.17c1.45,6.81,20.23-7,29.77,13.59,2.77,6,9.86,17.81,1.83,27.36-3,3.57,9.12,6.59,11.45,22.17,2.46,16.43-16.93,18.17-16.93,18.17s2.23,19.23-.37,23.31c-11.82,18.53-12.57,14-12.57,14S270.12,71.2,266,29.72Z"/></g><g id="face"><circle class="cls-2" cx="203.18" cy="190.35" r="183.98"/></g><g id="eyes"><path class="cls-3" d="M171.84,146.06c0,34-20.49,61.62-36.44,61.62s-31.87-27.59-31.87-61.62,18.93-61.62,34.87-61.62S171.84,112,171.84,146.06Z"/><path class="cls-3" d="M304.24,146.06c0,34-20.49,61.62-36.44,61.62s-31.87-27.59-31.87-61.62,18.92-61.62,34.87-61.62S304.24,112,304.24,146.06Z"/></g><g id="mouth"><path class="cls-4" d="M319.55,242.33c0,19.06-32.74,91.55-115.14,91.55-81.11,0-116.55-73.2-116.55-92.26S155.61,279,204.94,279,319.55,223.27,319.55,242.33Z"/><ellipse class="cls-5" cx="101.06" cy="252.4" rx="7.4" ry="9.51"/><circle class="cls-5" cx="308.33" cy="252.97" r="8.94"/></g><g id="pupils"><ellipse class="cls-6" cx="136.15" cy="147.03" rx="14.08" ry="37.77"/><ellipse class="cls-6" cx="271.49" cy="147.03" rx="14.08" ry="37.77"/></g><g id="nose"><circle class="cls-1" cx="203.71" cy="207.33" r="25.53"/></g></g></svg>