<?xml version="1.0" encoding="utf-8"?>
<!-- Generator: Adobe Illustrator 26.0.0, SVG Export Plug-In . SVG Version: 6.00 Build 0)  -->
<svg version="1.1" id="Layer_1" xmlns="http://www.w3.org/2000/svg" xmlns:xlink="http://www.w3.org/1999/xlink" x="0px" y="0px"
	 viewBox="0 0 200 200" style="enable-background:new 0 0 200 200;" xml:space="preserve">
<style type="text/css">
	.st0{fill:none;stroke:#FFFFFF;stroke-width:8;stroke-linecap:round;stroke-linejoin:round;stroke-miterlimit:10;}
</style>
<g>
	<path class="st0" d="M19.9,55.5c0,0,25.3-13.9,34.6-13.6c7.6,0.3,21.6,12.9,29.2,13.6c9.1,0.8,26.6-12.5,35.8-12.7
		c7.6-0.2,21.4,12.1,29,12.8c8.8,0.8,34.7-11.6,34.7-11.6"/>
	<path class="st0" d="M18.8,106.4c0,0,25.3-13.9,34.6-13.6c7.6,0.3,21.6,12.9,29.2,13.6c9.1,0.8,26.6-12.5,35.8-12.7
		c7.6-0.2,21.4,12.1,29,12.8c8.8,0.8,34.7-11.6,34.7-11.6"/>
	<path class="st0" d="M18.4,154c0,0,25.3-13.9,34.6-13.6c7.6,0.3,21.6,12.9,29.2,13.6c9.1,0.8,26.6-12.5,35.8-12.7
		c7.6-0.2,21.4,12.1,29,12.8c8.8,0.8,34.7-11.6,34.7-11.6"/>
</g>
</svg>
