<svg id="Layer_1" data-name="Layer 1" xmlns="http://www.w3.org/2000/svg" viewBox="0 0 410.69 374.33"><defs><style>.cls-1{fill:#f1f2f2;}.cls-2,.cls-3{fill:#fff;}.cls-2,.cls-4{stroke:#231f20;}.cls-2,.cls-3,.cls-4{stroke-miterlimit:10;stroke-width:15px;}.cls-3{stroke:#000;}.cls-5{fill:#231f20;}</style></defs><path d="M121.34,389.86c-4.58,1-14.79-3.92-16.9-8.1-1.48-2.93-12.17-26.47-11.22-31.34.89-4.52,14-25.35,14-25.35s-17.61,2.11-13.38-21.83c1.07-6.06,12-14.09,18.49-16.25,6.72-2.24-9.34-19.67,10.38-31.64,5.72-3.47,16.9-12,27.46-4.93,3.95,2.63,5.64-10,21.13-14.08,16.34-4.35,20.28,15.06,20.28,15.06s19.19-4.42,23.61-2.25c20.07,9.86,15.62,11.13,15.62,11.13S162.81,381,121.34,389.86Z" transform="translate(-93.16 -235.7)"/><path d="M359.12,265.43c-.46-4.58,5.43-14,9.75-15.63,3-1.13,27.18-9,31.83-7.54,4.32,1.35,23.24,16.47,23.24,16.47s-.15-17.43,22.78-10.69c5.81,1.7,12.46,13.23,13.86,19.83,1.45,6.81,20.23-7,29.77,13.59,2.77,6,9.86,17.81,1.83,27.37-3,3.56,9.12,6.58,11.45,22.17,2.47,16.43-16.93,18.17-16.93,18.17s2.23,19.22-.37,23.3c-11.82,18.53-12.57,14-12.57,14S363.28,306.91,359.12,265.43Z" transform="translate(-93.16 -235.7)"/><circle class="cls-1" cx="203.18" cy="190.35" r="183.98"/><path class="cls-2" d="M265,381.76c0,34-20.49,61.62-36.43,61.62s-31.88-27.59-31.88-61.62,18.93-61.62,34.88-61.62S265,347.73,265,381.76Z" transform="translate(-93.16 -235.7)"/><path class="cls-2" d="M397.4,381.76c0,34-20.49,61.62-36.44,61.62s-31.87-27.59-31.87-61.62S348,320.14,364,320.14,397.4,347.73,397.4,381.76Z" transform="translate(-93.16 -235.7)"/><path class="cls-3" d="M412.71,478c0,19.06-32.74,91.55-115.14,91.55-81.11,0-116.55-73.2-116.55-92.25s67.75,37.32,117.08,37.32S412.71,459,412.71,478Z" transform="translate(-93.16 -235.7)"/><ellipse class="cls-4" cx="101.06" cy="252.4" rx="7.4" ry="9.51"/><circle class="cls-4" cx="308.33" cy="252.97" r="8.94"/><ellipse class="cls-5" cx="136.15" cy="147.03" rx="14.08" ry="37.77"/><ellipse class="cls-5" cx="271.49" cy="147.03" rx="14.08" ry="37.77"/><circle cx="203.71" cy="207.33" r="25.53"/></svg>